<svg width="109" height="109" viewBox="0 0 109 109" fill="none" xmlns="http://www.w3.org/2000/svg">
<g filter="url(#filter0_dn_72_76)">
<path d="M56.6743 2.56138C82.7393 3.87032 102.98 25.902 101.998 52.0578L101.971 52.6744C100.662 78.7393 78.6306 98.98 52.4749 97.9984L51.8583 97.9713C25.9984 96.6727 5.87166 74.9763 6.51502 49.0918L6.53426 48.4749C7.52363 22.1133 29.6961 1.54496 56.0577 2.53433L56.6743 2.56138ZM26.7752 32.4308C23.6565 37.228 21.7539 42.9039 21.5237 49.0375C20.8451 67.1207 34.9542 82.3302 53.0374 83.0089C60.9351 83.3053 68.2837 80.7798 74.1141 76.3357L26.7752 32.4308ZM55.4951 17.5238C48.9854 17.2795 42.848 18.9515 37.6268 22.0355L83.669 64.7386C85.6451 60.7297 86.8304 56.2504 87.0089 51.4952C87.6875 33.412 73.5783 18.2025 55.4951 17.5238Z" fill="#B22420"/>
<path d="M56.6743 2.56138L56.7997 0.0645305L56.7918 0.0641332L56.7839 0.0637863L56.6743 2.56138ZM101.998 52.0578L104.496 52.1673L104.496 52.1594L104.497 52.1515L101.998 52.0578ZM101.971 52.6744L104.468 52.7998L104.469 52.7919L104.469 52.7839L101.971 52.6744ZM52.4749 97.9984L52.3653 100.496L52.3732 100.496L52.3811 100.497L52.4749 97.9984ZM51.8583 97.9713L51.7329 100.468L51.7408 100.469L51.7487 100.469L51.8583 97.9713ZM6.51502 49.0918L4.01623 49.0139L4.01599 49.0218L4.01579 49.0297L6.51502 49.0918ZM6.53426 48.4749L4.03602 48.3812L4.03572 48.3891L4.03548 48.397L6.53426 48.4749ZM56.0577 2.53433L56.1673 0.0367357L56.1594 0.0363889L56.1515 0.0360922L56.0577 2.53433ZM26.7752 32.4308L28.4753 30.5978L26.2979 28.5784L24.6792 31.0681L26.7752 32.4308ZM21.5237 49.0375L19.0255 48.9437L19.0255 48.9437L21.5237 49.0375ZM53.0374 83.0089L52.9437 85.5072L52.9437 85.5072L53.0374 83.0089ZM74.1141 76.3357L75.6296 78.324L77.9924 76.523L75.8141 74.5027L74.1141 76.3357ZM55.4951 17.5238L55.5889 15.0255L55.5889 15.0255L55.4951 17.5238ZM37.6268 22.0355L36.3554 19.883L33.4683 21.5883L35.9268 23.8685L37.6268 22.0355ZM83.669 64.7386L81.9689 66.5716L84.4283 68.8527L85.9114 65.8439L83.669 64.7386ZM87.0089 51.4952L89.5071 51.589L89.5071 51.589L87.0089 51.4952ZM56.6743 2.56138L56.5489 5.05824C81.249 6.29864 100.43 27.1774 99.5001 51.964L101.998 52.0578L104.497 52.1515C105.53 24.6266 84.2296 1.44201 56.7997 0.0645305L56.6743 2.56138ZM101.998 52.0578L99.5007 51.9482L99.4737 52.5648L101.971 52.6744L104.469 52.7839L104.496 52.1673L101.998 52.0578ZM101.971 52.6744L99.4744 52.549C98.234 77.2491 77.3552 96.4304 52.5686 95.5001L52.4749 97.9984L52.3811 100.497C79.906 101.53 103.091 80.2296 104.468 52.7998L101.971 52.6744ZM52.4749 97.9984L52.5844 95.5008L51.9678 95.4737L51.8583 97.9713L51.7487 100.469L52.3653 100.496L52.4749 97.9984ZM51.8583 97.9713L51.9836 95.4745C27.4782 94.2439 8.40458 73.6828 9.01425 49.154L6.51502 49.0918L4.01579 49.0297C3.33874 76.2698 24.5187 99.1016 51.7329 100.468L51.8583 97.9713ZM6.51502 49.0918L9.0138 49.1698L9.03305 48.5529L6.53426 48.4749L4.03548 48.397L4.01623 49.0139L6.51502 49.0918ZM6.53426 48.4749L9.0325 48.5687C9.97009 23.5868 30.982 4.09499 55.9639 5.03257L56.0577 2.53433L56.1515 0.0360922C28.4101 -1.00506 5.07717 20.6398 4.03602 48.3812L6.53426 48.4749ZM56.0577 2.53433L55.9481 5.03193L56.5647 5.05898L56.6743 2.56138L56.7839 0.0637863L56.1673 0.0367357L56.0577 2.53433ZM26.7752 32.4308L24.6792 31.0681C21.3211 36.2334 19.2731 42.346 19.0255 48.9437L21.5237 49.0375L24.022 49.1313C24.2347 43.4619 25.9918 38.2225 28.8712 33.7934L26.7752 32.4308ZM21.5237 49.0375L19.0255 48.9437C18.295 68.4067 33.4807 84.7767 52.9437 85.5072L53.0374 83.0089L53.1312 80.5107C36.4277 79.8838 23.3951 65.8347 24.022 49.1313L21.5237 49.0375ZM53.0374 83.0089L52.9437 85.5072C61.442 85.8261 69.3555 83.1064 75.6296 78.324L74.1141 76.3357L72.5985 74.3475C67.212 78.4533 60.4282 80.7845 53.1312 80.5107L53.0374 83.0089ZM74.1141 76.3357L75.8141 74.5027L28.4753 30.5978L26.7752 32.4308L25.0752 34.2638L72.414 78.1687L74.1141 76.3357ZM55.4951 17.5238L55.5889 15.0255C48.5862 14.7627 41.9767 16.5626 36.3554 19.883L37.6268 22.0355L38.8983 24.1881C43.7192 21.3404 49.3845 19.7962 55.4014 20.022L55.4951 17.5238ZM37.6268 22.0355L35.9268 23.8685L81.9689 66.5716L83.669 64.7386L85.3691 62.9057L39.3269 20.2025L37.6268 22.0355ZM83.669 64.7386L85.9114 65.8439C88.0395 61.5265 89.3151 56.7032 89.5071 51.589L87.0089 51.4952L84.5106 51.4014C84.3456 55.7975 83.2506 59.9329 81.4266 63.6333L83.669 64.7386ZM87.0089 51.4952L89.5071 51.589C90.2376 32.126 75.0518 15.756 55.5889 15.0255L55.4951 17.5238L55.4014 20.022C72.1048 20.6489 85.1375 34.698 84.5106 51.4014L87.0089 51.4952Z" fill="white"/>
</g>
<defs>
<filter id="filter0_dn_72_76" x="0" y="0" width="108.533" height="108.533" filterUnits="userSpaceOnUse" color-interpolation-filters="sRGB">
<feFlood flood-opacity="0" result="BackgroundImageFix"/>
<feColorMatrix in="SourceAlpha" type="matrix" values="0 0 0 0 0 0 0 0 0 0 0 0 0 0 0 0 0 0 127 0" result="hardAlpha"/>
<feOffset dy="4"/>
<feGaussianBlur stdDeviation="2"/>
<feComposite in2="hardAlpha" operator="out"/>
<feColorMatrix type="matrix" values="0 0 0 0 0 0 0 0 0 0 0 0 0 0 0 0 0 0 0.25 0"/>
<feBlend mode="normal" in2="BackgroundImageFix" result="effect1_dropShadow_72_76"/>
<feBlend mode="normal" in="SourceGraphic" in2="BackgroundImageFix" result="shape"/>
<feTurbulence type="fractalNoise" baseFrequency="1 1" stitchTiles="stitch" numOctaves="3" result="noise" seed="5886" />
<feColorMatrix in="noise" type="luminanceToAlpha" result="alphaNoise" />
<feComponentTransfer in="alphaNoise" result="coloredNoise1">
<feFuncA type="discrete" tableValues="1 1 1 1 1 1 1 1 1 1 1 1 1 1 1 1 1 1 1 1 1 1 1 1 1 1 1 1 1 1 1 1 1 1 1 1 1 1 1 1 1 1 1 1 1 1 1 1 1 1 1 0 0 0 0 0 0 0 0 0 0 0 0 0 0 0 0 0 0 0 0 0 0 0 0 0 0 0 0 0 0 0 0 0 0 0 0 0 0 0 0 0 0 0 0 0 0 0 0 0 "/>
</feComponentTransfer>
<feComposite operator="in" in2="shape" in="coloredNoise1" result="noise1Clipped" />
<feComponentTransfer in="alphaNoise" result="coloredNoise2">
<feFuncA type="discrete" tableValues="0 0 0 0 0 0 0 0 0 0 0 0 0 0 0 0 0 0 0 0 0 0 0 0 0 0 0 0 0 0 0 0 0 0 0 0 0 0 0 0 0 0 0 0 0 0 0 0 0 1 1 1 1 1 1 1 1 1 1 1 1 1 1 1 1 1 1 1 1 1 1 1 1 1 1 1 1 1 1 1 1 1 1 1 1 1 1 1 1 1 1 1 1 1 1 1 1 1 1 1 "/>
</feComponentTransfer>
<feComposite operator="in" in2="shape" in="coloredNoise2" result="noise2Clipped" />
<feFlood flood-color="rgba(0, 0, 0, 0.25)" result="color1Flood" />
<feComposite operator="in" in2="noise1Clipped" in="color1Flood" result="color1" />
<feFlood flood-color="rgba(255, 255, 255, 0.25)" result="color2Flood" />
<feComposite operator="in" in2="noise2Clipped" in="color2Flood" result="color2" />
<feMerge result="effect2_noise_72_76">
<feMergeNode in="shape" />
<feMergeNode in="color1" />
<feMergeNode in="color2" />
</feMerge>
<feBlend mode="normal" in="effect2_noise_72_76" in2="effect1_dropShadow_72_76" result="effect2_noise_72_76"/>
</filter>
</defs>
</svg>
