<svg width="154" height="154" viewBox="0 0 154 154" fill="none" xmlns="http://www.w3.org/2000/svg">
<g filter="url(#filter0_dn_72_79)">
<path d="M80.3901 2.59046C118.775 4.51833 148.582 36.9635 147.136 75.4819L147.097 76.3903C145.169 114.775 112.724 144.582 74.2055 143.136L73.2971 143.097C35.2146 141.185 5.57491 109.233 6.5221 71.1144L6.55034 70.2056C8.00734 31.3839 40.66 1.0935 79.4818 2.55051L80.3901 2.59046ZM31.092 41.6929C25.4196 50.0071 21.9451 59.9679 21.5398 70.7682C20.3936 101.311 44.2248 127 74.7681 128.147C88.5498 128.664 101.342 124.095 111.339 116.119L31.092 41.6929ZM78.9192 17.54C64.577 17.0017 51.305 21.9707 41.1418 30.5561L121.697 105.268C127.899 96.7054 131.72 86.2771 132.146 74.9193C133.293 44.3761 109.462 18.6864 78.9192 17.54Z" fill="#B22420"/>
<path d="M80.3901 2.59046L80.5155 0.0936065L80.5077 0.093216L80.5 0.0928741L80.3901 2.59046ZM147.136 75.4819L149.634 75.5891L149.634 75.5757L147.136 75.4819ZM147.097 76.3903L149.594 76.5157L149.594 76.5066L149.595 76.4974L147.097 76.3903ZM74.2055 143.136L74.0983 145.634L74.1118 145.634L74.2055 143.136ZM73.2971 143.097L73.1718 145.594L73.1809 145.594L73.19 145.595L73.2971 143.097ZM6.5221 71.1144L4.0233 71.0367L4.02306 71.0445L4.02287 71.0523L6.5221 71.1144ZM6.55034 70.2056L4.0521 70.1119L4.0518 70.1199L4.05155 70.128L6.55034 70.2056ZM79.4818 2.55051L79.5916 0.0529208L79.5836 0.0525667L79.5755 0.0522645L79.4818 2.55051ZM31.092 41.6929L32.7921 39.8599L30.6633 37.8855L29.0269 40.2839L31.092 41.6929ZM21.5398 70.7682L19.0415 70.6744L19.0415 70.6745L21.5398 70.7682ZM74.7681 128.147L74.6743 130.645L74.6743 130.645L74.7681 128.147ZM111.339 116.119L112.898 118.073L115.169 116.262L113.039 114.286L111.339 116.119ZM78.9192 17.54L79.013 15.0417L79.013 15.0417L78.9192 17.54ZM41.1418 30.5561L39.5285 28.6463L37.3712 30.4687L39.4418 32.3891L41.1418 30.5561ZM121.697 105.268L119.997 107.101L122.066 109.02L123.722 106.734L121.697 105.268ZM132.146 74.9193L134.645 75.0131L134.645 75.0131L132.146 74.9193ZM80.3901 2.59046L80.2647 5.08731C117.284 6.94663 146.032 38.2389 144.638 75.3881L147.136 75.4819L149.634 75.5757C151.131 35.6882 120.265 2.09003 80.5155 0.0936065L80.3901 2.59046ZM147.136 75.4819L144.638 75.3747L144.599 76.2831L147.097 76.3903L149.595 76.4974L149.634 75.5891L147.136 75.4819ZM147.097 76.3903L144.6 76.2649C142.741 113.284 111.448 142.032 74.2993 140.638L74.2055 143.136L74.1118 145.634C113.999 147.131 147.597 116.265 149.594 76.5157L147.097 76.3903ZM74.2055 143.136L74.3127 140.638L73.4043 140.599L73.2971 143.097L73.19 145.595L74.0983 145.634L74.2055 143.136ZM73.2971 143.097L73.4225 140.6C36.6943 138.756 8.10782 107.94 9.02132 71.1765L6.5221 71.1144L4.02287 71.0523C3.042 110.527 33.7348 143.614 73.1718 145.594L73.2971 143.097ZM6.5221 71.1144L9.02089 71.1921L9.04913 70.2833L6.55034 70.2056L4.05155 70.128L4.0233 71.0367L6.5221 71.1144ZM6.55034 70.2056L9.04858 70.2994C10.4538 32.8574 41.946 3.64352 79.388 5.04875L79.4818 2.55051L79.5755 0.0522645C39.374 -1.45652 5.56089 29.9104 4.0521 70.1119L6.55034 70.2056ZM79.4818 2.55051L79.3719 5.04809L80.2802 5.08804L80.3901 2.59046L80.5 0.0928741L79.5916 0.0529208L79.4818 2.55051ZM31.092 41.6929L29.0269 40.2839C23.0969 48.9755 19.4651 59.3901 19.0415 70.6744L21.5398 70.7682L24.038 70.862C24.4252 60.5458 27.7422 51.0386 33.1572 43.1019L31.092 41.6929ZM21.5398 70.7682L19.0415 70.6745C17.8436 102.597 42.7514 129.447 74.6743 130.645L74.7681 128.147L74.8618 125.648C45.6983 124.554 22.9436 100.025 24.038 70.8619L21.5398 70.7682ZM74.7681 128.147L74.6743 130.645C89.0769 131.185 102.451 126.408 112.898 118.073L111.339 116.119L109.779 114.165C100.233 121.781 88.0227 126.142 74.8618 125.648L74.7681 128.147ZM111.339 116.119L113.039 114.286L32.7921 39.8599L31.092 41.6929L29.392 43.5259L109.639 117.952L111.339 116.119ZM78.9192 17.54L79.013 15.0417C64.0244 14.4792 50.1489 19.6747 39.5285 28.6463L41.1418 30.5561L42.7551 32.4659C52.4611 24.2667 65.1297 19.5242 78.8254 20.0382L78.9192 17.54ZM41.1418 30.5561L39.4418 32.3891L119.997 107.101L121.697 105.268L123.397 103.435L42.8418 28.7231L41.1418 30.5561ZM121.697 105.268L123.722 106.734C130.204 97.784 134.199 86.8806 134.645 75.0131L132.146 74.9193L129.648 74.8256C129.241 85.6735 125.593 95.6269 119.673 103.801L121.697 105.268ZM132.146 74.9193L134.645 75.0131C135.843 43.0902 110.936 16.24 79.013 15.0417L78.9192 17.54L78.8254 20.0382C107.989 21.1329 130.743 45.662 129.648 74.8256L132.146 74.9193Z" fill="white"/>
</g>
<defs>
<filter id="filter0_dn_72_79" x="0" y="0" width="153.686" height="153.687" filterUnits="userSpaceOnUse" color-interpolation-filters="sRGB">
<feFlood flood-opacity="0" result="BackgroundImageFix"/>
<feColorMatrix in="SourceAlpha" type="matrix" values="0 0 0 0 0 0 0 0 0 0 0 0 0 0 0 0 0 0 127 0" result="hardAlpha"/>
<feOffset dy="4"/>
<feGaussianBlur stdDeviation="2"/>
<feComposite in2="hardAlpha" operator="out"/>
<feColorMatrix type="matrix" values="0 0 0 0 0 0 0 0 0 0 0 0 0 0 0 0 0 0 0.25 0"/>
<feBlend mode="normal" in2="BackgroundImageFix" result="effect1_dropShadow_72_79"/>
<feBlend mode="normal" in="SourceGraphic" in2="BackgroundImageFix" result="shape"/>
<feTurbulence type="fractalNoise" baseFrequency="1 1" stitchTiles="stitch" numOctaves="3" result="noise" seed="5886" />
<feColorMatrix in="noise" type="luminanceToAlpha" result="alphaNoise" />
<feComponentTransfer in="alphaNoise" result="coloredNoise1">
<feFuncA type="discrete" tableValues="1 1 1 1 1 1 1 1 1 1 1 1 1 1 1 1 1 1 1 1 1 1 1 1 1 1 1 1 1 1 1 1 1 1 1 1 1 1 1 1 1 1 1 1 1 1 1 1 1 1 1 0 0 0 0 0 0 0 0 0 0 0 0 0 0 0 0 0 0 0 0 0 0 0 0 0 0 0 0 0 0 0 0 0 0 0 0 0 0 0 0 0 0 0 0 0 0 0 0 0 "/>
</feComponentTransfer>
<feComposite operator="in" in2="shape" in="coloredNoise1" result="noise1Clipped" />
<feComponentTransfer in="alphaNoise" result="coloredNoise2">
<feFuncA type="discrete" tableValues="0 0 0 0 0 0 0 0 0 0 0 0 0 0 0 0 0 0 0 0 0 0 0 0 0 0 0 0 0 0 0 0 0 0 0 0 0 0 0 0 0 0 0 0 0 0 0 0 0 1 1 1 1 1 1 1 1 1 1 1 1 1 1 1 1 1 1 1 1 1 1 1 1 1 1 1 1 1 1 1 1 1 1 1 1 1 1 1 1 1 1 1 1 1 1 1 1 1 1 1 "/>
</feComponentTransfer>
<feComposite operator="in" in2="shape" in="coloredNoise2" result="noise2Clipped" />
<feFlood flood-color="rgba(0, 0, 0, 0.25)" result="color1Flood" />
<feComposite operator="in" in2="noise1Clipped" in="color1Flood" result="color1" />
<feFlood flood-color="rgba(255, 255, 255, 0.25)" result="color2Flood" />
<feComposite operator="in" in2="noise2Clipped" in="color2Flood" result="color2" />
<feMerge result="effect2_noise_72_79">
<feMergeNode in="shape" />
<feMergeNode in="color1" />
<feMergeNode in="color2" />
</feMerge>
<feBlend mode="normal" in="effect2_noise_72_79" in2="effect1_dropShadow_72_79" result="effect2_noise_72_79"/>
</filter>
</defs>
</svg>
