<svg width="150" height="225" viewBox="0 0 150 225" fill="none" xmlns="http://www.w3.org/2000/svg">
<path d="M53.5004 4.36277L61.6681 3.99989L64.5369 6.71584L66.4981 10.3872L68.6861 11.7608L74.196 11.2545L75.4111 8.35709L77.5503 7.86985L79.3006 8.96867L82.0726 16.1992L83.985 18.0098L87.5991 19.0585L88.3609 20.7568L89.026 26.9697L86.1416 29.1242L95.5253 34.1L102.413 39.6442L109.707 46.9679L114.618 53.7112L119.157 65.4061L121.556 77.5882L121.444 86.9732L119.079 97.9943L111.464 113.955L110.152 121.367L107.009 127.324L101.661 128.542L97.7716 127.931L86.5417 134.607L88.2275 138.715L91.5016 143.211L107.158 157.615L114.403 171.314L124.388 185.512L125.555 188.99L132.702 190.731L137.693 189.594L143.786 186.709L145.067 189.038L143.139 192.098L136.9 197.637L133.578 199.517L126.172 201.578L124.438 203.845L118.734 205.144L117.421 204.32L113.369 194.761L93.2057 167.157L76.7884 159.291L72.7542 169.569L68.2337 177.712L51.8835 191.544L42.6959 202.247L40.2813 203.172L35.6945 197.852L33.7986 199.407L29.9266 210.397L30.7215 218.827L29.8952 220.138L28.1126 220.544L26.7188 219.364L23.3959 213.008L21.6935 205.534L21.0275 191.085L31.3178 186.869L42.8554 178.251L48.7376 172.793L55.4626 169.389L57.8929 163.595L58.5074 151.475L57.9399 148.983L55.1845 145.118L45.2822 139.512L45.46 135.353L35.0878 130.977L26.3361 125.483L21.1984 121.038L14.5369 113.196L10.9386 107.277L6.64295 96.6493L4 83.3995L4.33908 71.7166L7.61139 59.74L10.5926 53.071L13.1527 49.4929L10.5594 46.3398L9.39225 42.8619L9.92659 38.6221L12.7944 33.102L11.303 28.2005L11.8539 27.3262L13.6365 26.9202L16.262 28.5684L18.4011 28.0812L21.2855 25.9267L23.9267 22.7045L24.9632 15.7297L26.697 13.4629L53.5004 4.36277Z" stroke="white" stroke-width="8" stroke-linecap="round" stroke-linejoin="round"/>
</svg>
