<svg width="230" height="155" viewBox="0 0 230 155" fill="none" xmlns="http://www.w3.org/2000/svg">
<path d="M90.6777 4.97624L92.4829 3.99993L96.6889 6.38419L129.145 45.9035L144.976 67.6251L146.366 68.0381L152.684 64.621L166.539 60.0398L185.71 56.66L219.403 55.3263L222.183 56.1523L225.73 59.4753L225.631 63.6057L191.015 137.652L186.646 144.674L182.341 146.42L135.759 146.571L94.3569 150.909L85.1145 148.919L41.0146 133.169L4.73106 117.849L4 116.498L5.07413 114.17L33.5243 84.806L34.1471 82.722L28.9303 77.3902L26.2497 72.4338L27.7391 68.7165L50.0153 47.3508L90.6777 4.97624Z" stroke="#2F338B" stroke-width="8" stroke-linecap="round" stroke-linejoin="round"/>
</svg>
